<mxfile host="app.diagrams.net" modified="2021-04-28T13:52:14.150Z" agent="5.0 (X11; Linux x86_64) AppleWebKit/537.36 (KHTML, like Gecko) Chrome/90.0.4430.72 Safari/537.36" etag="vZuRew3p2P4ALT0atNsU" version="14.6.3" type="github">
  <diagram id="atgp7A_OofQBprnTKgcp" name="Page-1">
    <mxGraphModel dx="588" dy="969" grid="0" gridSize="10" guides="1" tooltips="1" connect="1" arrows="1" fold="1" page="0" pageScale="1" pageWidth="827" pageHeight="1169" math="0" shadow="0">
      <root>
        <mxCell id="0" />
        <mxCell id="1" parent="0" />
        <mxCell id="izqqawYkYHoVplUdzcl--1" value="" style="ellipse;whiteSpace=wrap;html=1;aspect=fixed;fillColor=#f8cecc;strokeColor=#b85450;" vertex="1" parent="1">
          <mxGeometry x="340" y="380" width="80" height="80" as="geometry" />
        </mxCell>
        <mxCell id="izqqawYkYHoVplUdzcl--2" value="" style="ellipse;whiteSpace=wrap;html=1;aspect=fixed;" vertex="1" parent="1">
          <mxGeometry x="340" y="520" width="80" height="80" as="geometry" />
        </mxCell>
        <mxCell id="izqqawYkYHoVplUdzcl--3" value="" style="ellipse;whiteSpace=wrap;html=1;aspect=fixed;" vertex="1" parent="1">
          <mxGeometry x="340" y="670" width="80" height="80" as="geometry" />
        </mxCell>
        <mxCell id="izqqawYkYHoVplUdzcl--4" value="" style="ellipse;whiteSpace=wrap;html=1;aspect=fixed;" vertex="1" parent="1">
          <mxGeometry x="340" y="820" width="80" height="80" as="geometry" />
        </mxCell>
        <mxCell id="izqqawYkYHoVplUdzcl--5" value="" style="ellipse;whiteSpace=wrap;html=1;aspect=fixed;" vertex="1" parent="1">
          <mxGeometry x="500" y="380" width="80" height="80" as="geometry" />
        </mxCell>
        <mxCell id="izqqawYkYHoVplUdzcl--6" value="" style="ellipse;whiteSpace=wrap;html=1;aspect=fixed;" vertex="1" parent="1">
          <mxGeometry x="650" y="380" width="80" height="80" as="geometry" />
        </mxCell>
        <mxCell id="izqqawYkYHoVplUdzcl--7" value="" style="ellipse;whiteSpace=wrap;html=1;aspect=fixed;fillColor=#f8cecc;strokeColor=#b85450;" vertex="1" parent="1">
          <mxGeometry x="810" y="380" width="80" height="80" as="geometry" />
        </mxCell>
        <mxCell id="izqqawYkYHoVplUdzcl--8" value="" style="ellipse;whiteSpace=wrap;html=1;aspect=fixed;fillColor=#dae8fc;strokeColor=#6c8ebf;" vertex="1" parent="1">
          <mxGeometry x="500" y="520" width="80" height="80" as="geometry" />
        </mxCell>
        <mxCell id="izqqawYkYHoVplUdzcl--9" value="" style="ellipse;whiteSpace=wrap;html=1;aspect=fixed;fillColor=#dae8fc;strokeColor=#6c8ebf;" vertex="1" parent="1">
          <mxGeometry x="650" y="520" width="80" height="80" as="geometry" />
        </mxCell>
        <mxCell id="izqqawYkYHoVplUdzcl--10" value="" style="ellipse;whiteSpace=wrap;html=1;aspect=fixed;" vertex="1" parent="1">
          <mxGeometry x="810" y="520" width="80" height="80" as="geometry" />
        </mxCell>
        <mxCell id="izqqawYkYHoVplUdzcl--11" value="" style="ellipse;whiteSpace=wrap;html=1;aspect=fixed;" vertex="1" parent="1">
          <mxGeometry x="500" y="670" width="80" height="80" as="geometry" />
        </mxCell>
        <mxCell id="izqqawYkYHoVplUdzcl--12" value="" style="ellipse;whiteSpace=wrap;html=1;aspect=fixed;fillColor=#dae8fc;strokeColor=#6c8ebf;" vertex="1" parent="1">
          <mxGeometry x="650" y="670" width="80" height="80" as="geometry" />
        </mxCell>
        <mxCell id="izqqawYkYHoVplUdzcl--13" value="" style="ellipse;whiteSpace=wrap;html=1;aspect=fixed;fillColor=#f8cecc;strokeColor=#b85450;" vertex="1" parent="1">
          <mxGeometry x="810" y="670" width="80" height="80" as="geometry" />
        </mxCell>
        <mxCell id="izqqawYkYHoVplUdzcl--14" value="" style="ellipse;whiteSpace=wrap;html=1;aspect=fixed;" vertex="1" parent="1">
          <mxGeometry x="500" y="820" width="80" height="80" as="geometry" />
        </mxCell>
        <mxCell id="izqqawYkYHoVplUdzcl--15" value="" style="ellipse;whiteSpace=wrap;html=1;aspect=fixed;" vertex="1" parent="1">
          <mxGeometry x="650" y="820" width="80" height="80" as="geometry" />
        </mxCell>
        <mxCell id="izqqawYkYHoVplUdzcl--16" value="" style="ellipse;whiteSpace=wrap;html=1;aspect=fixed;" vertex="1" parent="1">
          <mxGeometry x="810" y="820" width="80" height="80" as="geometry" />
        </mxCell>
        <mxCell id="izqqawYkYHoVplUdzcl--17" value="" style="shape=flexArrow;endArrow=classic;html=1;" edge="1" parent="1" source="izqqawYkYHoVplUdzcl--8" target="izqqawYkYHoVplUdzcl--5">
          <mxGeometry width="50" height="50" relative="1" as="geometry">
            <mxPoint x="457" y="635" as="sourcePoint" />
            <mxPoint x="507" y="585" as="targetPoint" />
          </mxGeometry>
        </mxCell>
        <mxCell id="izqqawYkYHoVplUdzcl--18" value="" style="shape=flexArrow;endArrow=classic;html=1;" edge="1" parent="1" source="izqqawYkYHoVplUdzcl--5" target="izqqawYkYHoVplUdzcl--1">
          <mxGeometry width="50" height="50" relative="1" as="geometry">
            <mxPoint x="457" y="635" as="sourcePoint" />
            <mxPoint x="507" y="585" as="targetPoint" />
          </mxGeometry>
        </mxCell>
        <mxCell id="izqqawYkYHoVplUdzcl--20" value="" style="shape=flexArrow;endArrow=classic;html=1;entryX=0.5;entryY=1;entryDx=0;entryDy=0;" edge="1" parent="1" source="izqqawYkYHoVplUdzcl--12" target="izqqawYkYHoVplUdzcl--9">
          <mxGeometry width="50" height="50" relative="1" as="geometry">
            <mxPoint x="457" y="635" as="sourcePoint" />
            <mxPoint x="507" y="585" as="targetPoint" />
          </mxGeometry>
        </mxCell>
        <mxCell id="izqqawYkYHoVplUdzcl--21" value="" style="shape=flexArrow;endArrow=classic;html=1;" edge="1" parent="1" source="izqqawYkYHoVplUdzcl--5" target="izqqawYkYHoVplUdzcl--6">
          <mxGeometry width="50" height="50" relative="1" as="geometry">
            <mxPoint x="590" y="434" as="sourcePoint" />
            <mxPoint x="640" y="384" as="targetPoint" />
          </mxGeometry>
        </mxCell>
        <mxCell id="izqqawYkYHoVplUdzcl--22" value="" style="shape=flexArrow;endArrow=classic;html=1;" edge="1" parent="1" source="izqqawYkYHoVplUdzcl--6" target="izqqawYkYHoVplUdzcl--7">
          <mxGeometry width="50" height="50" relative="1" as="geometry">
            <mxPoint x="457" y="635" as="sourcePoint" />
            <mxPoint x="507" y="585" as="targetPoint" />
          </mxGeometry>
        </mxCell>
        <mxCell id="izqqawYkYHoVplUdzcl--23" value="" style="shape=flexArrow;endArrow=classic;html=1;" edge="1" parent="1" source="izqqawYkYHoVplUdzcl--9" target="izqqawYkYHoVplUdzcl--6">
          <mxGeometry width="50" height="50" relative="1" as="geometry">
            <mxPoint x="457" y="635" as="sourcePoint" />
            <mxPoint x="507" y="585" as="targetPoint" />
          </mxGeometry>
        </mxCell>
        <mxCell id="izqqawYkYHoVplUdzcl--26" value="" style="shape=flexArrow;endArrow=classic;html=1;" edge="1" parent="1" source="izqqawYkYHoVplUdzcl--8" target="izqqawYkYHoVplUdzcl--11">
          <mxGeometry width="50" height="50" relative="1" as="geometry">
            <mxPoint x="457" y="635" as="sourcePoint" />
            <mxPoint x="507" y="585" as="targetPoint" />
          </mxGeometry>
        </mxCell>
        <mxCell id="izqqawYkYHoVplUdzcl--27" value="" style="shape=flexArrow;endArrow=classic;html=1;" edge="1" parent="1" source="izqqawYkYHoVplUdzcl--11" target="izqqawYkYHoVplUdzcl--12">
          <mxGeometry width="50" height="50" relative="1" as="geometry">
            <mxPoint x="457" y="635" as="sourcePoint" />
            <mxPoint x="507" y="585" as="targetPoint" />
          </mxGeometry>
        </mxCell>
        <mxCell id="izqqawYkYHoVplUdzcl--28" value="" style="shape=flexArrow;endArrow=classic;html=1;" edge="1" parent="1" source="izqqawYkYHoVplUdzcl--12" target="izqqawYkYHoVplUdzcl--13">
          <mxGeometry width="50" height="50" relative="1" as="geometry">
            <mxPoint x="457" y="635" as="sourcePoint" />
            <mxPoint x="507" y="585" as="targetPoint" />
          </mxGeometry>
        </mxCell>
        <mxCell id="izqqawYkYHoVplUdzcl--30" value="" style="shape=flexArrow;endArrow=classic;html=1;" edge="1" parent="1" source="izqqawYkYHoVplUdzcl--6" target="izqqawYkYHoVplUdzcl--5">
          <mxGeometry width="50" height="50" relative="1" as="geometry">
            <mxPoint x="562" y="569" as="sourcePoint" />
            <mxPoint x="612" y="519" as="targetPoint" />
          </mxGeometry>
        </mxCell>
        <mxCell id="izqqawYkYHoVplUdzcl--31" value="" style="shape=flexArrow;endArrow=classic;html=1;" edge="1" parent="1" source="izqqawYkYHoVplUdzcl--9" target="izqqawYkYHoVplUdzcl--10">
          <mxGeometry width="50" height="50" relative="1" as="geometry">
            <mxPoint x="562" y="569" as="sourcePoint" />
            <mxPoint x="612" y="519" as="targetPoint" />
          </mxGeometry>
        </mxCell>
        <mxCell id="izqqawYkYHoVplUdzcl--32" value="" style="shape=flexArrow;endArrow=classic;html=1;" edge="1" parent="1" source="izqqawYkYHoVplUdzcl--10" target="izqqawYkYHoVplUdzcl--13">
          <mxGeometry width="50" height="50" relative="1" as="geometry">
            <mxPoint x="562" y="569" as="sourcePoint" />
            <mxPoint x="612" y="519" as="targetPoint" />
          </mxGeometry>
        </mxCell>
        <mxCell id="izqqawYkYHoVplUdzcl--33" value="" style="shape=flexArrow;endArrow=classic;html=1;entryX=0;entryY=0.5;entryDx=0;entryDy=0;" edge="1" parent="1" source="izqqawYkYHoVplUdzcl--8" target="izqqawYkYHoVplUdzcl--9">
          <mxGeometry width="50" height="50" relative="1" as="geometry">
            <mxPoint x="562" y="569" as="sourcePoint" />
            <mxPoint x="612" y="519" as="targetPoint" />
          </mxGeometry>
        </mxCell>
      </root>
    </mxGraphModel>
  </diagram>
</mxfile>
